<svg width="20" height="21" viewBox="0 0 20 21" fill="none" xmlns="http://www.w3.org/2000/svg">
<path d="M14 10H10.5V6.5C10.5 6.22388 10.2761 6 10 6C9.72388 6 9.5 6.22388 9.5 6.5V10H6C5.72388 10 5.5 10.2239 5.5 10.5C5.5 10.7761 5.72388 11 6 11H9.5V14.5005C9.50018 14.7766 9.724 15.0002 10 15C10.2759 14.9998 10.5002 14.776 10.5 14.5V11H14C14.2761 11 14.5 10.7761 14.5 10.5C14.5 10.2239 14.2761 10 14 10ZM10 0.5C4.47717 0.5 0 4.97717 0 10.5C0 16.0228 4.47717 20.5 10 20.5C15.5202 20.4937 19.9937 16.0202 20 10.5C20 4.97717 15.5228 0.5 10 0.5ZM10 19.5C5.02942 19.5 1 15.4706 1 10.5C1 5.52942 5.02942 1.5 10 1.5C14.9683 1.50562 18.9944 5.53174 19 10.5C19 15.4706 14.9706 19.5 10 19.5Z" fill="black"/>
</svg>
