<svg width="42" height="22" viewBox="0 0 42 22" fill="none" xmlns="http://www.w3.org/2000/svg">
<path d="M34.2312 4.00001C32.5587 4.00001 31.0245 4.58671 29.8208 5.56455C28.5749 4.55032 27.0169 3.99763 25.4104 4.00001C23.7379 4.00001 22.2037 4.58671 21 5.56455C19.7541 4.55032 18.1961 3.99763 16.5896 4.00001C14.9171 4.00001 13.3829 4.58671 12.1792 5.56455C11.1521 4.73108 9.90989 4.20566 8.59647 4.04917C7.28304 3.89268 5.95216 4.11153 4.758 4.68035C3.56385 5.24917 2.55529 6.1447 1.84918 7.26317C1.14307 8.38164 0.768311 9.67729 0.768311 11C0.768311 12.3227 1.14307 13.6184 1.84918 14.7368C2.55529 15.8553 3.56385 16.7508 4.758 17.3197C5.95216 17.8885 7.28304 18.1073 8.59647 17.9508C9.90989 17.7943 11.1521 17.2689 12.1792 16.4354C13.3829 17.4133 14.9171 18 16.5896 18C18.262 18 19.7962 17.4133 21 16.4354C22.2037 17.4133 23.7379 18 25.4104 18C27.0828 18 28.617 17.4133 29.8208 16.4354C30.6908 17.1415 31.7177 17.6284 32.815 17.8551C33.9123 18.0819 35.048 18.042 36.1266 17.7386C37.2053 17.4353 38.1953 16.8775 39.0136 16.112C39.8319 15.3466 40.4545 14.3959 40.829 13.3398C41.2035 12.2838 41.3191 11.1533 41.166 10.0433C41.0128 8.93334 40.5955 7.87635 39.949 6.96118C39.3025 6.04601 38.4458 5.2994 37.4508 4.78412C36.4558 4.26884 35.3517 3.99993 34.2312 4.00001ZM29.8208 14.146C29.1638 13.2286 28.8112 12.1283 28.8126 11C28.8126 9.82659 29.1869 8.74085 29.8208 7.85405C30.4547 8.74085 30.829 9.82659 30.829 11C30.829 12.1734 30.4547 13.2592 29.8208 14.146ZM21 14.146C20.343 13.2286 19.9904 12.1283 19.9918 11C19.9918 9.82659 20.3661 8.74085 21 7.85405C21.6339 8.74085 22.0082 9.82659 22.0082 11C22.0082 12.1734 21.6339 13.2592 21 14.146ZM12.1792 14.146C11.5222 13.2286 11.1696 12.1283 11.171 11C11.171 9.82659 11.5453 8.74085 12.1792 7.85405C12.8131 8.74085 13.1874 9.82659 13.1874 11C13.1874 12.1734 12.8131 13.2592 12.1792 14.146ZM2.35019 11C2.35059 9.98892 2.63387 8.99813 3.16799 8.13965C3.70211 7.28117 4.46578 6.58925 5.37262 6.14214C6.27947 5.69503 7.29332 5.51057 8.29954 5.6096C9.30575 5.70864 10.2642 6.08723 11.0665 6.70256C10.1079 7.92982 9.58796 9.44275 9.58959 11C9.58959 12.6202 10.1426 14.1122 11.0665 15.2974C10.2642 15.9128 9.30575 16.2914 8.29954 16.3904C7.29332 16.4894 6.27947 16.305 5.37262 15.8579C4.46578 15.4108 3.70211 14.7188 3.16799 13.8604C2.63387 13.0019 2.35059 12.0111 2.35019 11ZM13.2919 15.2974C14.2505 14.0702 14.7704 12.5572 14.7688 11C14.7688 9.37982 14.2158 7.88777 13.2919 6.70256C14.2371 5.97487 15.3967 5.58064 16.5896 5.58141C17.8304 5.58141 18.9735 5.99952 19.8873 6.70256C18.9282 7.92957 18.4082 9.44267 18.4104 11C18.4104 12.6202 18.9634 14.1122 19.8873 15.2974C18.942 16.0251 17.7825 16.4194 16.5896 16.4186C15.3965 16.4203 14.2367 16.0259 13.2919 15.2974ZM22.1127 15.2974C23.0717 14.0704 23.5917 12.5573 23.5896 11C23.5896 9.37982 23.0366 7.88777 22.1127 6.70087C23.0265 5.99952 24.1695 5.57973 25.4104 5.57973C26.6512 5.57973 27.7943 5.99784 28.7081 6.70087C27.749 7.92788 27.229 9.44098 27.2312 10.9983C27.2312 12.6185 27.7842 14.1105 28.7081 15.2958C27.7628 16.0235 26.6033 16.4177 25.4104 16.4169C24.2174 16.4198 23.0573 16.026 22.1127 15.2974ZM34.2312 16.4186C33.0381 16.4203 31.8783 16.0259 30.9335 15.2974C31.8918 14.0701 32.4117 12.5572 32.4104 11C32.4104 9.37982 31.8574 7.88777 30.9335 6.70256C31.6166 6.17793 32.4149 5.8237 33.2623 5.66925C34.1096 5.51479 34.9816 5.56456 35.8059 5.81443C36.6302 6.0643 37.383 6.50707 38.002 7.10602C38.621 7.70497 39.0882 8.44285 39.3651 9.25847C39.6419 10.0741 39.7203 10.944 39.5938 11.7959C39.4673 12.6479 39.1395 13.4575 38.6376 14.1574C38.1357 14.8574 37.4741 15.4277 36.7078 15.8209C35.9415 16.2141 35.0925 16.419 34.2312 16.4186Z" fill="#323232"/>
</svg>

