<svg width="18" height="18" viewBox="0 0 18 18" fill="none" xmlns="http://www.w3.org/2000/svg">
<g clip-path="url(#clip0_848_1012)">
<path d="M9 4.40639C8.59985 4.40639 8.20868 4.28773 7.87597 4.06542C7.54326 3.8431 7.28394 3.52712 7.13081 3.15743C6.97768 2.78774 6.93761 2.38094 7.01568 1.98848C7.09374 1.59602 7.28643 1.23552 7.56938 0.952568C7.85233 0.669618 8.21283 0.476927 8.60529 0.398861C8.99776 0.320796 9.40455 0.360862 9.77425 0.513993C10.1439 0.667124 10.4599 0.926443 10.6822 1.25916C10.9045 1.59187 11.0232 1.98303 11.0232 2.38319C11.0232 2.91977 10.81 3.43438 10.4306 3.8138C10.0512 4.19323 9.53659 4.40639 9 4.40639ZM9 1.43999C8.81773 1.43999 8.63954 1.49404 8.48799 1.5953C8.33643 1.69657 8.21831 1.8405 8.14855 2.00891C8.0788 2.17731 8.06055 2.36261 8.09611 2.54138C8.13167 2.72015 8.21944 2.88437 8.34833 3.01326C8.47722 3.14214 8.64143 3.22992 8.82021 3.26548C8.99898 3.30104 9.18428 3.28279 9.35268 3.21303C9.52108 3.14328 9.66502 3.02516 9.76628 2.8736C9.86755 2.72204 9.9216 2.54386 9.9216 2.36159C9.9216 2.11716 9.8245 1.88275 9.65167 1.70992C9.47884 1.53708 9.24442 1.43999 9 1.43999ZM2.3832 4.40639C1.98305 4.40639 1.59189 4.28773 1.25917 4.06542C0.926458 3.8431 0.66714 3.52712 0.514008 3.15743C0.360877 2.78774 0.320811 2.38094 0.398877 1.98848C0.476942 1.59602 0.669634 1.23552 0.952583 0.952568C1.23553 0.669618 1.59603 0.476927 1.98849 0.398861C2.38096 0.320796 2.78775 0.360862 3.15745 0.513993C3.52714 0.667124 3.84312 0.926443 4.06543 1.25916C4.28774 1.59187 4.4064 1.98303 4.4064 2.38319C4.4064 2.91977 4.19324 3.43438 3.81382 3.8138C3.4344 4.19323 2.91979 4.40639 2.3832 4.40639ZM2.3832 1.43999C2.13878 1.43999 1.90437 1.53708 1.73153 1.70992C1.5587 1.88275 1.4616 2.11716 1.4616 2.36159C1.4616 2.60601 1.5587 2.84042 1.73153 3.01326C1.90437 3.18609 2.13878 3.28319 2.3832 3.28319C2.62762 3.28319 2.86204 3.18609 3.03487 3.01326C3.2077 2.84042 3.3048 2.60601 3.3048 2.36159C3.3048 2.11716 3.2077 1.88275 3.03487 1.70992C2.86204 1.53708 2.62762 1.43999 2.3832 1.43999ZM15.6168 4.40639C15.2167 4.40639 14.8255 4.28773 14.4928 4.06542C14.1601 3.8431 13.9007 3.52712 13.7476 3.15743C13.5945 2.78774 13.5544 2.38094 13.6325 1.98848C13.7105 1.59602 13.9032 1.23552 14.1862 0.952568C14.4691 0.669618 14.8296 0.476927 15.2221 0.398861C15.6146 0.320796 16.0214 0.360862 16.391 0.513993C16.7607 0.667124 17.0767 0.926443 17.299 1.25916C17.5213 1.59187 17.64 1.98303 17.64 2.38319C17.64 2.91977 17.4268 3.43438 17.0474 3.8138C16.668 4.19323 16.1534 4.40639 15.6168 4.40639ZM15.6168 1.46159C15.4355 1.46584 15.2595 1.52348 15.1108 1.62729C14.9621 1.73111 14.8474 1.87648 14.7809 2.04522C14.7145 2.21395 14.6993 2.39853 14.7372 2.57586C14.7752 2.75318 14.8646 2.91537 14.9943 3.04211C15.124 3.16884 15.2882 3.2545 15.4664 3.28834C15.6446 3.32219 15.8287 3.30272 15.9959 3.23237C16.163 3.16203 16.3057 3.04394 16.4061 2.89288C16.5064 2.74183 16.56 2.56453 16.56 2.38319C16.563 2.25852 16.5406 2.13454 16.4942 2.01877C16.4479 1.903 16.3785 1.79784 16.2903 1.70966C16.2021 1.62148 16.097 1.55211 15.9812 1.50576C15.8654 1.4594 15.7415 1.43703 15.6168 1.43999V1.46159ZM9 17.64C8.59985 17.64 8.20868 17.5213 7.87597 17.299C7.54326 17.0767 7.28394 16.7607 7.13081 16.391C6.97768 16.0213 6.93761 15.6145 7.01568 15.2221C7.09374 14.8296 7.28643 14.4691 7.56938 14.1862C7.85233 13.9032 8.21283 13.7105 8.60529 13.6325C8.99776 13.5544 9.40455 13.5945 9.77425 13.7476C10.1439 13.9007 10.4599 14.16 10.6822 14.4928C10.9045 14.8255 11.0232 15.2166 11.0232 15.6168C11.0232 16.1534 10.81 16.668 10.4306 17.0474C10.0512 17.4268 9.53659 17.64 9 17.64ZM9 14.6952C8.81773 14.6952 8.63954 14.7492 8.48799 14.8505C8.33643 14.9518 8.21831 15.0957 8.14855 15.2641C8.0788 15.4325 8.06055 15.6178 8.09611 15.7966C8.13167 15.9754 8.21944 16.1396 8.34833 16.2685C8.47722 16.3973 8.64143 16.4851 8.82021 16.5207C8.99898 16.5562 9.18428 16.538 9.35268 16.4682C9.52108 16.3985 9.66502 16.2804 9.76628 16.1288C9.86755 15.9772 9.9216 15.7991 9.9216 15.6168C9.91972 15.3729 9.82202 15.1396 9.64959 14.9672C9.47716 14.7948 9.24384 14.6971 9 14.6952ZM2.3832 17.64C1.98305 17.64 1.59189 17.5213 1.25917 17.299C0.926458 17.0767 0.66714 16.7607 0.514008 16.391C0.360877 16.0213 0.320811 15.6145 0.398877 15.2221C0.476942 14.8296 0.669634 14.4691 0.952583 14.1862C1.23553 13.9032 1.59603 13.7105 1.98849 13.6325C2.38096 13.5544 2.78775 13.5945 3.15745 13.7476C3.52714 13.9007 3.84312 14.16 4.06543 14.4928C4.28774 14.8255 4.4064 15.2166 4.4064 15.6168C4.4064 16.1534 4.19324 16.668 3.81382 17.0474C3.4344 17.4268 2.91979 17.64 2.3832 17.64ZM2.3832 14.6952C2.20093 14.6952 2.02274 14.7492 1.87119 14.8505C1.71963 14.9518 1.60151 15.0957 1.53175 15.2641C1.462 15.4325 1.44375 15.6178 1.47931 15.7966C1.51487 15.9754 1.60264 16.1396 1.73153 16.2685C1.86042 16.3973 2.02463 16.4851 2.20341 16.5207C2.38218 16.5562 2.56748 16.538 2.73588 16.4682C2.90428 16.3985 3.04822 16.2804 3.14948 16.1288C3.25075 15.9772 3.3048 15.7991 3.3048 15.6168C3.3048 15.4958 3.28096 15.3759 3.23465 15.2641C3.18833 15.1523 3.12045 15.0507 3.03487 14.9651C2.94929 14.8795 2.8477 14.8117 2.73588 14.7653C2.62407 14.719 2.50423 14.6952 2.3832 14.6952Z" fill="#999999"/>
<path d="M9 14.6952C8.8542 14.6952 8.71427 14.6378 8.6105 14.5354C8.50673 14.433 8.44749 14.2938 8.4456 14.148V3.85201C8.4456 3.70497 8.50401 3.56396 8.60798 3.45999C8.71195 3.35602 8.85296 3.29761 9 3.29761C9.14703 3.29761 9.28805 3.35602 9.39202 3.45999C9.49599 3.56396 9.5544 3.70497 9.5544 3.85201V14.148C9.5525 14.2938 9.49326 14.433 9.38949 14.5354C9.28573 14.6378 9.14579 14.6952 9 14.6952ZM2.3832 14.6952C2.2374 14.6952 2.09747 14.6378 1.9937 14.5354C1.88993 14.433 1.83069 14.2938 1.8288 14.148V3.85201C1.83069 3.70622 1.88993 3.56705 1.9937 3.46463C2.09747 3.36222 2.2374 3.3048 2.3832 3.30481C2.52832 3.30481 2.66751 3.36246 2.77013 3.46508C2.87275 3.5677 2.9304 3.70688 2.9304 3.85201V14.148C2.9304 14.2199 2.91624 14.291 2.88874 14.3574C2.86124 14.4238 2.82094 14.4841 2.77013 14.5349C2.71931 14.5857 2.65899 14.6261 2.5926 14.6536C2.52621 14.6811 2.45506 14.6952 2.3832 14.6952Z" fill="#999999"/>
<path d="M14.148 9.55441H2.3832C2.23616 9.55441 2.09515 9.496 1.99118 9.39203C1.88721 9.28806 1.8288 9.14705 1.8288 9.00001C1.8288 8.85297 1.88721 8.71196 1.99118 8.60799C2.09515 8.50402 2.23616 8.44561 2.3832 8.44561H14.148C14.3912 8.44562 14.6245 8.34951 14.7971 8.17823C14.9698 8.00695 15.0677 7.77438 15.0696 7.53121V3.85201C15.0696 3.78015 15.0838 3.70899 15.1112 3.64261C15.1387 3.57622 15.1791 3.51589 15.2299 3.46508C15.2807 3.41427 15.341 3.37396 15.4074 3.34646C15.4738 3.31896 15.5449 3.30481 15.6168 3.30481C15.7626 3.3048 15.9025 3.36222 16.0063 3.46464C16.1101 3.56705 16.1693 3.70622 16.1712 3.85201V7.53121C16.1712 8.0678 15.958 8.5824 15.5786 8.96183C15.1992 9.34125 14.6846 9.55441 14.148 9.55441ZM17.0856 17.64C17.0131 17.64 16.9414 17.6256 16.8745 17.5977C16.8077 17.5697 16.747 17.5288 16.6961 17.4772C16.6452 17.4256 16.605 17.3644 16.578 17.2972C16.5509 17.23 16.5374 17.1581 16.5384 17.0856V16.3656C16.5384 16.2449 16.5145 16.1254 16.4681 16.014C16.4217 15.9026 16.3537 15.8015 16.268 15.7165C16.1824 15.6315 16.0807 15.5643 15.9689 15.5187C15.8572 15.4732 15.7375 15.4503 15.6168 15.4512H14.6952V17.1C14.6961 17.1725 14.6827 17.2444 14.6556 17.3116C14.6286 17.3788 14.5884 17.44 14.5375 17.4916C14.4866 17.5432 14.4259 17.5841 14.3591 17.6121C14.2922 17.64 14.2205 17.6544 14.148 17.6544C14.001 17.6544 13.8599 17.596 13.756 17.492C13.652 17.3881 13.5936 17.247 13.5936 17.1V14.8824C13.5955 14.736 13.6545 14.596 13.758 14.4925C13.8616 14.3889 14.0015 14.3299 14.148 14.328H15.588C16.1246 14.328 16.6392 14.5412 17.0186 14.9206C17.398 15.3 17.6112 15.8146 17.6112 16.3512V17.0712C17.6141 17.1431 17.6028 17.2148 17.5779 17.2823C17.5531 17.3498 17.5151 17.4118 17.4663 17.4646C17.4175 17.5174 17.3588 17.5601 17.2934 17.5902C17.2281 17.6203 17.1575 17.6372 17.0856 17.64Z" fill="#999999"/>
<path d="M15.6168 15.4368H14.1768C14.0304 15.4349 13.8904 15.3759 13.7868 15.2723C13.6833 15.1688 13.6243 15.0288 13.6224 14.8824V11.9448C13.6224 11.7977 13.6808 11.6567 13.7848 11.5528C13.8888 11.4488 14.0298 11.3904 14.1768 11.3904H15.6168C16.1534 11.3904 16.668 11.6035 17.0474 11.983C17.4268 12.3624 17.64 12.877 17.64 13.4136C17.64 13.9502 17.4268 14.4648 17.0474 14.8442C16.668 15.2236 16.1534 15.4368 15.6168 15.4368ZM14.6952 14.328H15.6168C15.7442 14.3393 15.8725 14.3239 15.9937 14.2829C16.1148 14.2419 16.2261 14.1762 16.3204 14.0898C16.4148 14.0035 16.4901 13.8984 16.5416 13.7814C16.5932 13.6644 16.6198 13.5379 16.6198 13.41C16.6198 13.2821 16.5932 13.1556 16.5416 13.0386C16.4901 12.9215 16.4148 12.8165 16.3204 12.7301C16.2261 12.6438 16.1148 12.578 15.9937 12.537C15.8725 12.496 15.7442 12.4807 15.6168 12.492H14.6952V14.328Z" fill="#999999"/>
</g>
<defs>
<clipPath id="clip0_848_1012">
<rect width="18" height="18" fill="white"/>
</clipPath>
</defs>
</svg>
