<svg width="22" height="22" viewBox="0 0 22 22" fill="none" xmlns="http://www.w3.org/2000/svg">
<g clip-path="url(#clip0_848_887)">
<path d="M11 0C4.92525 0 0 4.92525 0 11C0 17.0748 4.92525 22 11 22C17.0748 22 22 17.0748 22 11C22 4.92525 17.0748 0 11 0ZM11 0.715C16.6797 0.715 21.2841 5.31942 21.2841 11C21.2841 16.6797 16.6806 21.2841 11 21.2841C5.31942 21.2841 0.715917 16.6797 0.715917 11C0.715917 5.32033 5.32033 0.715 11 0.715ZM10.3785 1.2925C10.076 1.30533 9.7735 1.331 9.46917 1.364L9.37108 4.06267C9.58692 4.02614 9.80401 3.9974 10.0219 3.9765L10.0861 2.15417L10.0742 2.02858L10.1136 2.14775L10.7222 3.51267H11.2778L11.8864 2.14867L11.9231 2.02858L11.9139 2.15417L11.9781 3.9765C12.1908 3.99667 12.4117 4.026 12.6289 4.06267L12.529 1.364C12.2268 1.32994 11.9235 1.3061 11.6197 1.2925L11.0211 2.78208L11 2.89208L10.9789 2.78208L10.3785 1.2925ZM16.5165 2.9645L15.1021 5.19017C15.2808 5.32767 15.5164 5.53025 15.6677 5.66867L16.9996 4.9775L17.0839 4.91425L17.0207 5.00042L16.3313 6.33233C16.4808 6.49275 16.6962 6.75217 16.8172 6.90983L19.0447 5.4945C18.9081 5.31778 18.7675 5.14418 18.623 4.97383L17.2123 5.90333L17.116 5.98767L17.1875 5.88225L17.8108 4.63925L17.3708 4.19925L16.1278 4.82258L16.0224 4.89408L16.1058 4.79692L17.039 3.38617C16.874 3.24683 16.7173 3.11942 16.5165 2.9645ZM5.04167 3.46958C4.71167 3.5035 4.45683 3.729 3.76475 4.50083C3.52476 4.77281 3.29334 5.05222 3.07083 5.33867L4.972 7.14175C5.60175 6.44508 5.8575 6.18658 6.35433 5.66317C6.70542 5.29192 6.90433 4.86567 6.55233 4.45592C6.36167 4.23408 6.04083 4.1855 5.77317 4.2955L5.7475 4.30467L5.75667 4.28083C5.78973 4.1592 5.78623 4.03053 5.74661 3.91087C5.707 3.79122 5.63302 3.68588 5.53392 3.608C5.46503 3.55368 5.38605 3.51357 5.30156 3.48996C5.21707 3.46636 5.12873 3.45883 5.04167 3.46958ZM5.04717 4.03333C5.17183 3.99942 5.30108 4.08833 5.3295 4.21667C5.35883 4.345 5.27817 4.466 5.18833 4.56683C4.98667 4.796 4.24325 5.57333 4.24325 5.57333L3.87475 5.22225C4.257 4.75475 4.664 4.32942 4.84825 4.16075C4.90353 4.10312 4.97171 4.05945 5.04717 4.03333ZM11 4.47608C9.3852 4.47537 7.82757 5.07381 6.62865 6.15555C5.42973 7.23729 4.67479 8.72538 4.51 10.3317V10.3336C4.40642 11.3527 4.54412 12.3819 4.91197 13.338C5.27982 14.2941 5.86749 15.1502 6.62747 15.8371C7.38745 16.524 8.29841 17.0224 9.28668 17.292C10.275 17.5616 11.3128 17.5949 12.3163 17.3892C13.7873 17.0868 15.1088 16.2859 16.0574 15.1218C17.0061 13.9576 17.5238 12.5017 17.523 11C17.5213 9.2706 16.8335 7.61253 15.6105 6.38974C14.3876 5.16696 12.7294 4.47937 11 4.47792V4.47608ZM5.92442 4.69792C5.9675 4.69792 6.01242 4.70983 6.05275 4.73733C6.13342 4.79142 6.17008 4.884 6.14992 4.97567C6.12608 5.08475 6.03533 5.18742 5.962 5.26717L5.00408 6.29383L4.61908 5.92717C4.61908 5.92717 5.3405 5.1645 5.577 4.91975C5.6705 4.82258 5.731 4.76392 5.79517 4.73183C5.83492 4.71119 5.87966 4.69961 5.92442 4.69792ZM11 5.33317C11.7444 5.33232 12.4817 5.47832 13.1696 5.76281C13.8575 6.0473 14.4826 6.46468 15.0089 6.99106C15.5353 7.51744 15.9527 8.14249 16.2372 8.8304C16.5217 9.51831 16.6677 10.2556 16.6668 11H11V16.6668C10.2556 16.6677 9.51831 16.5217 8.8304 16.2372C8.14249 15.9527 7.51744 15.5353 6.99106 15.0089C6.46468 14.4826 6.0473 13.8575 5.76281 13.1696C5.47832 12.4817 5.33232 11.7444 5.33317 11H11V5.33317Z" fill="#323232"/>
</g>
<defs>
<clipPath id="clip0_848_887">
<rect width="22" height="22" fill="white"/>
</clipPath>
</defs>
</svg>
