<svg width="18" height="18" viewBox="0 0 18 18" fill="none" xmlns="http://www.w3.org/2000/svg">
<path d="M0.600006 16.3199V17.64C0.600006 17.8388 0.765291 18 0.969557 18H14.1415C14.3457 18 14.511 17.8388 14.511 17.64V16.3199C14.511 16.1211 14.3457 15.9599 14.1415 15.9599H13.3587V10.53H13.5283C14.1967 10.53 14.7402 11.0594 14.7402 11.7104V14.2671C14.7402 15.0351 15.3815 15.66 16.1701 15.66C16.9587 15.66 17.6 15.0351 17.6 14.2671V4.25987C17.6 4.16441 17.561 4.07285 17.4917 4.00534L15.8739 2.42966C15.8739 2.42966 15.8739 2.42968 15.8739 2.42966L15.2848 1.85589C15.1404 1.71525 14.9066 1.71525 14.7622 1.85589C14.6179 1.99651 14.6179 2.2245 14.7622 2.36495L15.2429 2.83315V4.98022C15.2429 5.70797 15.8507 6.3 16.5978 6.3H16.8609V14.2671C16.8609 14.6382 16.5509 14.94 16.1701 14.94C15.7894 14.94 15.4793 14.6382 15.4793 14.2671V11.7104C15.4793 10.6625 14.6041 9.80999 13.5283 9.80999H13.3587V1.27916C13.3587 0.573734 12.7697 0 12.0453 0H3.06534C2.341 0 1.75199 0.573734 1.75199 1.27916V15.9599H0.969557C0.765291 15.9599 0.600006 16.1211 0.600006 16.3199ZM16.5978 5.58C16.2582 5.58 15.9821 5.31086 15.9821 4.98022V3.55304L16.8609 4.40894V5.58H16.5978ZM2.49115 1.27916C2.49115 0.970837 2.74882 0.719999 3.06534 0.719999H12.0453C12.3619 0.719999 12.6195 0.970837 12.6195 1.27916V15.9599H2.49115V1.27916ZM1.33914 16.6799H2.12157H12.9891H13.7719V17.28H1.33914V16.6799Z" fill="#999999"/>
<path d="M11.5109 1.43994H3.60021C3.39594 1.43994 3.23063 1.60111 3.23063 1.79993V7.34989C3.23063 7.54868 3.39594 7.70988 3.60021 7.70988H11.5109C11.7151 7.70988 11.8804 7.54868 11.8804 7.34989V1.79993C11.8804 1.60111 11.7151 1.43994 11.5109 1.43994ZM11.1413 6.98988H8.19147L9.42122 4.88805C9.52227 4.71528 9.4602 4.49555 9.28298 4.39709C9.10579 4.29814 8.87985 4.35843 8.77881 4.53156L7.34046 6.98988H3.96976V2.15994H11.1413V6.98988ZM10.701 9.20578C10.051 9.20578 9.5219 9.72116 9.5219 10.3545V13.3154C9.5219 13.9487 10.051 14.4641 10.701 14.4641C11.3513 14.4641 11.8804 13.9487 11.8804 13.3154V10.3545C11.8804 9.72116 11.3513 9.20578 10.701 9.20578ZM11.1413 13.3154C11.1413 13.5518 10.9439 13.7441 10.701 13.7441C10.4584 13.7441 10.2611 13.5518 10.2611 13.3154V10.3545C10.2611 10.1181 10.4584 9.92578 10.701 9.92578C10.9439 9.92578 11.1413 10.1181 11.1413 10.3545V13.3154Z" fill="#999999"/>
</svg>
