<svg width="20" height="21" viewBox="0 0 20 21" fill="none" xmlns="http://www.w3.org/2000/svg">
<path d="M10 0.5C4.47717 0.5 0 4.97717 0 10.5C0 16.0228 4.47717 20.5 10 20.5C15.5202 20.4937 19.9937 16.0202 20 10.5C20 4.97717 15.5228 0.5 10 0.5ZM10 19.5C5.02942 19.5 1 15.4706 1 10.5C1 5.52942 5.02942 1.5 10 1.5C14.9683 1.50562 18.9944 5.53174 19 10.5C19 15.4706 14.9706 19.5 10 19.5Z" fill="black"/>
<path d="M14.7194 5.77979C14.5944 5.65427 14.4368 5.56619 14.2643 5.52546C14.0919 5.48474 13.9115 5.49299 13.7435 5.5493L7.67524 7.57262C7.53488 7.61952 7.40734 7.69841 7.30269 7.80306C7.19805 7.9077 7.11916 8.03524 7.07226 8.1756L5.04903 14.2445C4.99296 14.4126 4.9848 14.5929 5.02548 14.7653C5.06615 14.9377 5.15405 15.0954 5.27931 15.2207C5.40458 15.3459 5.56226 15.4338 5.73467 15.4745C5.90709 15.5152 6.08743 15.507 6.25547 15.451L12.3242 13.4279C12.4646 13.3812 12.5922 13.3024 12.6968 13.1977C12.8014 13.0931 12.8801 12.9654 12.9267 12.825L14.9491 6.75602C15.0052 6.58803 15.0135 6.40771 14.973 6.23528C14.9324 6.06285 14.8446 5.90513 14.7194 5.77979ZM12 12.5L8 8.5L14 6.5L12 12.5Z" fill="black"/>
</svg>
