<svg width="20" height="21" viewBox="0 0 20 21" fill="none" xmlns="http://www.w3.org/2000/svg">
<g clip-path="url(#clip0_848_1370)">
<path d="M10 0.5C8.02219 0.5 6.08879 1.08649 4.4443 2.1853C2.79981 3.28412 1.51809 4.8459 0.761209 6.67317C0.00433282 8.50043 -0.193701 10.5111 0.192152 12.4509C0.578004 14.3907 1.53041 16.1725 2.92894 17.5711C4.32746 18.9696 6.10929 19.922 8.0491 20.3078C9.98891 20.6937 11.9996 20.4957 13.8268 19.7388C15.6541 18.9819 17.2159 17.7002 18.3147 16.0557C19.4135 14.4112 20 12.4778 20 10.5C19.9983 7.84835 18.9442 5.30579 17.0692 3.43079C15.1942 1.5558 12.6517 0.501686 10 0.5ZM14.7182 6.92727L12.7909 12.7182C12.7469 12.8518 12.6722 12.9732 12.5727 13.0727C12.4732 13.1722 12.3518 13.2469 12.2182 13.2909L6.42728 15.2182C6.33703 15.2509 6.24142 15.2663 6.14546 15.2636C5.90395 15.2643 5.67196 15.1696 5.5 15C5.38053 14.8813 5.29674 14.7315 5.25817 14.5676C5.2196 14.4037 5.2278 14.2322 5.28182 14.0727L7.2091 8.28182C7.2531 8.1482 7.32784 8.02678 7.42731 7.92731C7.52678 7.82784 7.64821 7.75309 7.78182 7.70909L13.5727 5.78182C13.7323 5.72823 13.9037 5.72023 14.0675 5.75872C14.2314 5.79721 14.3813 5.88066 14.5003 5.99969C14.6193 6.11872 14.7028 6.2686 14.7413 6.43247C14.7798 6.59634 14.7718 6.7677 14.7182 6.92727Z" fill="black"/>
<path d="M12.4182 8.08179L11.3727 11.2272L9.27273 9.12724L12.4182 8.08179Z" fill="black"/>
</g>
<defs>
<clipPath id="clip0_848_1370">
<rect width="20" height="20" fill="white" transform="translate(0 0.5)"/>
</clipPath>
</defs>
</svg>
