<svg width="20" height="21" viewBox="0 0 20 21" fill="none" xmlns="http://www.w3.org/2000/svg">
<path d="M16.1125 12.7011C16.3475 12.702 16.582 12.7221 16.8137 12.7611V3.09361C16.8128 2.51807 16.5837 1.96638 16.1767 1.5594C15.7697 1.15243 15.218 0.923355 14.6425 0.922363H2.93125C2.3557 0.923355 1.80401 1.15243 1.39704 1.5594C0.990064 1.96638 0.76099 2.51807 0.759998 3.09361V15.7349C0.76099 16.3104 0.990064 16.8621 1.39704 17.2691C1.80401 17.676 2.3557 17.9051 2.93125 17.9061H11.9762C11.8298 17.2833 11.8263 16.6355 11.966 16.0111C12.1058 15.3868 12.3852 14.8023 12.7832 14.3014C13.1812 13.8005 13.6876 13.3963 14.2642 13.1192C14.8408 12.842 15.4727 12.6991 16.1125 12.7011ZM3.9175 3.70111H13.6525C13.8017 3.70111 13.9448 3.76038 14.0502 3.86587C14.1557 3.97135 14.215 4.11443 14.215 4.26361C14.215 4.4128 14.1557 4.55587 14.0502 4.66136C13.9448 4.76685 13.8017 4.82611 13.6525 4.82611H3.9175C3.76831 4.82611 3.62524 4.76685 3.51975 4.66136C3.41426 4.55587 3.355 4.4128 3.355 4.26361C3.355 4.11443 3.41426 3.97135 3.51975 3.86587C3.62524 3.76038 3.76831 3.70111 3.9175 3.70111ZM3.9175 7.13611H13.6525C13.8017 7.13611 13.9448 7.19538 14.0502 7.30087C14.1557 7.40635 14.215 7.54943 14.215 7.69861C14.215 7.8478 14.1557 7.99087 14.0502 8.09636C13.9448 8.20185 13.8017 8.26111 13.6525 8.26111H3.9175C3.76831 8.26111 3.62524 8.20185 3.51975 8.09636C3.41426 7.99087 3.355 7.8478 3.355 7.69861C3.355 7.54943 3.41426 7.40635 3.51975 7.30087C3.62524 7.19538 3.76831 7.13611 3.9175 7.13611ZM3.9175 10.5674H13.6525C13.8017 10.5674 13.9448 10.6266 14.0502 10.7321C14.1557 10.8376 14.215 10.9807 14.215 11.1299C14.215 11.279 14.1557 11.4221 14.0502 11.5276C13.9448 11.6331 13.8017 11.6924 13.6525 11.6924H3.9175C3.76831 11.6924 3.62524 11.6331 3.51975 11.5276C3.41426 11.4221 3.355 11.279 3.355 11.1299C3.355 10.9807 3.41426 10.8376 3.51975 10.7321C3.62524 10.6266 3.76831 10.5674 3.9175 10.5674ZM10.9262 15.1274H3.9175C3.76831 15.1274 3.62524 15.0681 3.51975 14.9626C3.41426 14.8571 3.355 14.714 3.355 14.5649C3.355 14.4157 3.41426 14.2726 3.51975 14.1671C3.62524 14.0616 3.76831 14.0024 3.9175 14.0024H10.9262C11.0754 14.0024 11.2185 14.0616 11.324 14.1671C11.4295 14.2726 11.4887 14.4157 11.4887 14.5649C11.4887 14.714 11.4295 14.8571 11.324 14.9626C11.2185 15.0681 11.0754 15.1274 10.9262 15.1274ZM16.1125 13.8261C15.4943 13.8265 14.8901 14.0102 14.3763 14.3539C13.8625 14.6977 13.4622 15.1861 13.226 15.7573C12.9897 16.3286 12.9282 16.9571 13.0492 17.5634C13.1701 18.1696 13.4682 18.7264 13.9055 19.1632C14.3429 19.6001 14.9 19.8974 15.5064 20.0177C16.1128 20.1379 16.7412 20.0756 17.3122 19.8387C17.8832 19.6018 18.3711 19.2009 18.7143 18.6867C19.0574 18.1725 19.2404 17.5681 19.24 16.9499C19.2393 16.121 18.9095 15.3263 18.323 14.7405C17.7365 14.1547 16.9414 13.8258 16.1125 13.8261ZM17.605 17.5124H16.1125C15.9633 17.5124 15.8202 17.4531 15.7148 17.3476C15.6093 17.2421 15.55 17.099 15.55 16.9499V15.2361C15.55 15.0869 15.6093 14.9439 15.7148 14.8384C15.8202 14.7329 15.9633 14.6736 16.1125 14.6736C16.2617 14.6736 16.4048 14.7329 16.5102 14.8384C16.6157 14.9439 16.675 15.0869 16.675 15.2361V16.3874H17.605C17.7542 16.3874 17.8973 16.4466 18.0027 16.5521C18.1082 16.6576 18.1675 16.8007 18.1675 16.9499C18.1675 17.099 18.1082 17.2421 18.0027 17.3476C17.8973 17.4531 17.7542 17.5124 17.605 17.5124Z" fill="black"/>
</svg>
