<svg width="24" height="25" viewBox="0 0 24 25" fill="none" xmlns="http://www.w3.org/2000/svg">
<path d="M14.6438 20.7162H5.20875C4.36368 20.7152 3.5535 20.3791 2.95595 19.7815C2.35839 19.184 2.02224 18.3738 2.02125 17.5287V5.38623C2.02224 4.54116 2.35839 3.73098 2.95595 3.13342C3.5535 2.53587 4.36368 2.19972 5.20875 2.19873H16.4588C17.3038 2.19972 18.114 2.53587 18.7116 3.13342C19.3091 3.73098 19.6453 4.54116 19.6463 5.38623V15.365C19.6463 15.5142 19.587 15.6572 19.4815 15.7627C19.376 15.8682 19.2329 15.9275 19.0838 15.9275C18.9346 15.9275 18.7915 15.8682 18.686 15.7627C18.5805 15.6572 18.5213 15.5142 18.5213 15.365V5.38623C18.5206 4.83943 18.303 4.31523 17.9164 3.92859C17.5297 3.54195 17.0055 3.32443 16.4588 3.32373H5.20875C4.66196 3.32443 4.13775 3.54195 3.75111 3.92859C3.36447 4.31523 3.14695 4.83943 3.14625 5.38623V17.5287C3.14695 18.0755 3.36447 18.5997 3.75111 18.9864C4.13775 19.373 4.66196 19.5905 5.20875 19.5912H14.6438C14.7929 19.5912 14.936 19.6505 15.0415 19.756C15.147 19.8615 15.2063 20.0045 15.2063 20.1537C15.2063 20.3029 15.147 20.446 15.0415 20.5515C14.936 20.657 14.7929 20.7162 14.6438 20.7162Z" fill="black"/>
<path d="M15.51 7.07227H6.1575C6.00832 7.07227 5.86524 7.013 5.75975 6.90751C5.65426 6.80202 5.595 6.65895 5.595 6.50977C5.595 6.36058 5.65426 6.21751 5.75975 6.11202C5.86524 6.00653 6.00832 5.94727 6.1575 5.94727H15.51C15.6592 5.94727 15.8023 6.00653 15.9077 6.11202C16.0132 6.21751 16.0725 6.36058 16.0725 6.50977C16.0725 6.65895 16.0132 6.80202 15.9077 6.90751C15.8023 7.013 15.6592 7.07227 15.51 7.07227ZM15.51 10.3708H6.1575C6.00832 10.3708 5.86524 10.3115 5.75975 10.206C5.65426 10.1005 5.595 9.95745 5.595 9.80827C5.595 9.65908 5.65426 9.51601 5.75975 9.41052C5.86524 9.30503 6.00832 9.24577 6.1575 9.24577H15.51C15.6592 9.24577 15.8023 9.30503 15.9077 9.41052C16.0132 9.51601 16.0725 9.65908 16.0725 9.80827C16.0725 9.95745 16.0132 10.1005 15.9077 10.206C15.8023 10.3115 15.6592 10.3708 15.51 10.3708ZM15.51 13.6689H6.1575C6.00832 13.6689 5.86524 13.6096 5.75975 13.5041C5.65426 13.3986 5.595 13.2556 5.595 13.1064C5.595 12.9572 5.65426 12.8141 5.75975 12.7086C5.86524 12.6032 6.00832 12.5439 6.1575 12.5439H15.51C15.6592 12.5439 15.8023 12.6032 15.9077 12.7086C16.0132 12.8141 16.0725 12.9572 16.0725 13.1064C16.0725 13.2556 16.0132 13.3986 15.9077 13.5041C15.8023 13.6096 15.6592 13.6689 15.51 13.6689ZM12.8895 16.967H6.15788C6.00869 16.967 5.86562 16.9078 5.76013 16.8023C5.65464 16.6968 5.59538 16.5537 5.59538 16.4045C5.59538 16.2553 5.65464 16.1123 5.76013 16.0068C5.86562 15.9013 6.00869 15.842 6.15788 15.842H12.8895C13.0387 15.842 13.1818 15.9013 13.2872 16.0068C13.3927 16.1123 13.452 16.2553 13.452 16.4045C13.452 16.5537 13.3927 16.6968 13.2872 16.8023C13.1818 16.9078 13.0387 16.967 12.8895 16.967ZM17.8733 22.8016C17.0613 22.8016 16.2675 22.5609 15.5924 22.1097C14.9172 21.6586 14.391 21.0174 14.0803 20.2672C13.7695 19.5171 13.6882 18.6916 13.8466 17.8952C14.005 17.0988 14.3961 16.3673 14.9702 15.7931C15.5444 15.2189 16.2759 14.8279 17.0723 14.6695C17.8687 14.5111 18.6942 14.5924 19.4444 14.9032C20.1945 15.2139 20.8357 15.7401 21.2869 16.4152C21.738 17.0904 21.9788 17.8841 21.9788 18.6961C21.9775 19.7846 21.5445 20.828 20.7748 21.5976C20.0052 22.3672 18.9617 22.8005 17.8733 22.8016ZM17.8733 15.7156C17.2837 15.7156 16.7074 15.8903 16.2172 16.2178C15.727 16.5453 15.345 17.0107 15.1193 17.5554C14.8937 18.1 14.8346 18.6993 14.9496 19.2775C15.0646 19.8557 15.3485 20.3868 15.7653 20.8037C16.1822 21.2205 16.7133 21.5044 17.2915 21.6194C17.8697 21.7344 18.469 21.6753 19.0136 21.4497C19.5583 21.2241 20.0238 20.842 20.3512 20.3518C20.6787 19.8616 20.8535 19.2853 20.8534 18.6958C20.8524 17.9057 20.5381 17.1483 19.9794 16.5896C19.4208 16.0309 18.6633 15.7166 17.8733 15.7156Z" fill="black"/>
<path d="M19.3054 19.2586H17.8732C17.7241 19.2586 17.581 19.1993 17.4755 19.0938C17.37 18.9883 17.3107 18.8452 17.3107 18.6961V17.0498C17.3107 16.9006 17.37 16.7575 17.4755 16.6521C17.581 16.5466 17.7241 16.4873 17.8732 16.4873C18.0224 16.4873 18.1655 16.5466 18.271 16.6521C18.3765 16.7575 18.4357 16.9006 18.4357 17.0498V18.1336H19.3057C19.4549 18.1336 19.598 18.1928 19.7035 18.2983C19.809 18.4038 19.8682 18.5469 19.8682 18.6961C19.8682 18.8452 19.809 18.9883 19.7035 19.0938C19.598 19.1993 19.4546 19.2586 19.3054 19.2586Z" fill="black"/>
</svg>
