<svg width="22" height="23" viewBox="0 0 22 23" fill="none" xmlns="http://www.w3.org/2000/svg">
<path d="M8.15722 20.2714V17.2047C8.1572 16.4246 8.79312 15.7908 9.58101 15.7856H12.4671C13.2587 15.7856 13.9005 16.4209 13.9005 17.2047V17.2047V20.2809C13.9003 20.9432 14.4343 21.4845 15.103 21.5H17.0271C18.9451 21.5 20.5 19.9607 20.5 18.0618V18.0618V9.33784C20.4898 8.59083 20.1355 7.88935 19.538 7.43303L12.9577 2.1853C11.8049 1.27157 10.1662 1.27157 9.01342 2.1853L2.46203 7.44256C1.86226 7.89702 1.50739 8.59967 1.5 9.34736V18.0618C1.5 19.9607 3.05488 21.5 4.97291 21.5H6.89696C7.58235 21.5 8.13797 20.9499 8.13797 20.2714V20.2714" stroke="black" stroke-width="1.5" stroke-linecap="round" stroke-linejoin="round"/>
</svg>
