<svg width="24" height="25" viewBox="0 0 24 25" fill="none" xmlns="http://www.w3.org/2000/svg">
<path d="M11.999 13.3759C11.963 13.3759 11.894 13.3299 11.777 13.1159C11.2873 12.2042 10.615 11.4033 9.802 10.7629C9.16397 10.2625 8.4557 9.85888 7.7 9.56495C7.58547 9.51843 7.47047 9.47309 7.355 9.42895C6.343 9.02895 5.294 8.61595 4.32 8.05195C4.21203 7.99083 4.10534 7.92749 4 7.86195C4.194 7.52195 4.42 7.19695 4.67 6.89995C5.03281 6.4663 5.45458 6.0856 5.923 5.76895C6.42593 5.43269 6.96964 5.16184 7.541 4.96295C8.759 4.52895 10.218 4.31595 11.999 4.31395C13.782 4.31595 15.24 4.52895 16.458 4.96395C17.0298 5.16216 17.5739 5.43269 18.077 5.76895C18.5452 6.08555 18.9669 6.46588 19.33 6.89895C19.58 7.19695 19.805 7.52195 20 7.86195C19.897 7.92595 19.788 7.99095 19.68 8.05395C18.704 8.61795 17.657 9.03095 16.643 9.42995L16.298 9.56595C15.543 9.86012 14.8355 10.2638 14.198 10.7639C13.3846 11.4043 12.7123 12.2057 12.223 13.1179C12.106 13.3309 12.036 13.3759 11.999 13.3759ZM11.999 20.4489C10.455 20.4469 9.201 20.3199 8.169 20.0619C7.156 19.8099 6.314 19.4219 5.593 18.874C5.04032 18.4495 4.56876 17.9288 4.201 17.3369C3.85647 16.7847 3.58425 16.1905 3.391 15.5689C3.08962 14.603 2.93226 13.5978 2.924 12.5859C2.924 11.912 2.971 11.273 3.059 10.6849C4.165 11.2809 5.212 11.5799 6.139 11.8449L6.354 11.9049C7.644 12.2759 8.668 12.7619 9.489 13.3929C9.964 13.7609 10.379 14.1859 10.719 14.6569C11.088 15.1649 11.382 15.7449 11.596 16.3819C11.692 16.6709 11.796 16.8499 11.999 16.8499C12.206 16.8499 12.307 16.6699 12.404 16.3819C12.7857 15.1946 13.5208 14.1522 14.511 13.3939C15.331 12.7619 16.356 12.2759 17.646 11.9049L17.862 11.8449C18.788 11.5799 19.835 11.2809 20.94 10.6849C21.03 11.2739 21.076 11.9119 21.076 12.5849C21.076 13.0429 21.03 14.249 20.611 15.5689C20.4179 16.1904 20.146 16.7845 19.802 17.3369C19.4331 17.9292 18.9602 18.4499 18.406 18.874C17.683 19.4219 16.841 19.8099 15.832 20.0619C14.797 20.3199 13.544 20.4469 11.999 20.4489ZM21.691 5.89295C19.782 3.84295 16.701 2.90295 11.999 2.89795C7.299 2.90295 4.218 3.84195 2.309 5.89195C0.89 7.41295 0 9.51795 0 12.3739C0 13.9529 0.39 17.9739 3.564 20.0499C5.464 21.2919 7.918 22.0959 11.999 22.1019C16.082 22.0959 18.535 21.2919 20.436 20.0499C23.609 17.9739 24 13.9519 24 12.3739C24 9.52595 23.103 7.40595 21.69 5.89095L21.691 5.89295Z" fill="black"/>
</svg>
