<svg width="19" height="18" viewBox="0 0 19 18" fill="none" xmlns="http://www.w3.org/2000/svg">
<g clip-path="url(#clip0_848_1020)">
<path d="M9.53809 5.43868C9.53809 5.57755 9.5293 5.71641 9.50996 5.85352C9.51699 5.80606 9.52227 5.76036 9.5293 5.7129C9.49063 5.98712 9.41856 6.2543 9.31133 6.51095L9.36407 6.38438C9.28848 6.56192 9.19532 6.73243 9.08809 6.89415C9.05996 6.93634 9.03008 6.97677 9.00196 7.0172C8.93692 7.1086 9.0793 6.92227 9.02129 6.99259C9.00723 7.01016 8.99317 7.02774 8.97735 7.04708C8.91582 7.12091 8.85078 7.19122 8.78399 7.25977C8.71543 7.32833 8.64512 7.39161 8.57129 7.45313C8.55371 7.4672 8.53614 7.48302 8.5168 7.49708C8.44649 7.55509 8.62051 7.41973 8.5502 7.47071C8.50977 7.50059 8.46934 7.52872 8.42715 7.55684C8.26367 7.66759 8.08965 7.76075 7.9086 7.83809L8.03516 7.78536C7.78028 7.89259 7.51309 7.96641 7.23711 8.00333C7.28457 7.9963 7.33028 7.99102 7.37774 7.98399C7.10176 8.01915 6.82403 8.01915 6.54805 7.98399C6.59551 7.99102 6.64121 7.9963 6.68867 8.00333C6.41446 7.96466 6.14727 7.89259 5.89063 7.78536L6.01719 7.83809C5.83965 7.76251 5.66914 7.66934 5.50742 7.56212C5.46524 7.53399 5.42481 7.50411 5.38438 7.47598C5.29297 7.41095 5.4793 7.55333 5.40899 7.49532C5.39141 7.48126 5.37383 7.4672 5.35449 7.45138C5.28067 7.38985 5.21035 7.32481 5.1418 7.25802C5.07324 7.18946 5.00996 7.11915 4.94844 7.04532C4.93438 7.02774 4.91856 7.01016 4.90449 6.99083C4.84649 6.92052 4.98184 7.09454 4.93086 7.02423C4.90098 6.9838 4.87285 6.94337 4.84473 6.90118C4.73399 6.7377 4.64082 6.56368 4.56348 6.38263L4.61621 6.50919C4.50899 6.2543 4.43516 5.98712 4.39824 5.71114C4.40528 5.7586 4.41055 5.8043 4.41758 5.85177C4.38242 5.57579 4.38242 5.29806 4.41758 5.02208C4.41055 5.06954 4.40528 5.11524 4.39824 5.1627C4.43692 4.88848 4.50899 4.6213 4.61621 4.36466L4.56348 4.49122C4.63907 4.31368 4.73223 4.14317 4.83946 3.98145C4.86758 3.93927 4.89746 3.89884 4.92559 3.85841C4.99063 3.767 4.84824 3.95333 4.90625 3.88302C4.92032 3.86544 4.93438 3.84786 4.9502 3.82852C5.01172 3.7547 5.07676 3.68438 5.14356 3.61583C5.21035 3.54727 5.28242 3.48399 5.35625 3.42247C5.37383 3.40841 5.39141 3.39259 5.41074 3.37852C5.48106 3.32052 5.30703 3.45587 5.37735 3.40489C5.41778 3.37501 5.45821 3.34688 5.50039 3.31876C5.66387 3.20802 5.83789 3.11485 6.01895 3.03751L5.89239 3.09024C6.14727 2.98302 6.41446 2.90919 6.69043 2.87227C6.64297 2.8793 6.59727 2.88458 6.54981 2.89161C6.82578 2.85645 7.10352 2.85645 7.37949 2.89161C7.33203 2.88458 7.28633 2.8793 7.23887 2.87227C7.51309 2.91095 7.78028 2.98302 8.03692 3.09024L7.91035 3.03751C8.08789 3.11309 8.2584 3.20626 8.42012 3.31348C8.46231 3.34161 8.50274 3.37149 8.54317 3.39962C8.63457 3.46466 8.44824 3.32227 8.51856 3.38028C8.53614 3.39434 8.55371 3.40841 8.57305 3.42423C8.64688 3.48575 8.71719 3.55079 8.78574 3.61759C8.8543 3.68614 8.91758 3.75645 8.9791 3.83028C8.99317 3.84786 9.00899 3.86544 9.02305 3.88477C9.08106 3.95509 8.94571 3.78106 8.99668 3.85138C9.02656 3.8918 9.05469 3.93223 9.08282 3.97442C9.19356 4.1379 9.28672 4.31192 9.36407 4.49298L9.31133 4.36641C9.41856 4.6213 9.49238 4.88848 9.5293 5.16446C9.52227 5.117 9.51699 5.0713 9.50996 5.02384C9.5293 5.16095 9.53809 5.29981 9.53809 5.43868C9.53985 5.71466 9.78067 5.97833 10.0654 5.96602C10.3502 5.95372 10.5945 5.73399 10.5928 5.43868C10.5893 4.70567 10.3695 3.96212 9.94063 3.36622C9.49414 2.74571 8.89473 2.28516 8.17578 2.01973C6.78887 1.50997 5.12598 1.95997 4.19082 3.10431C3.69864 3.70723 3.40684 4.41739 3.34531 5.19434C3.28731 5.92559 3.47539 6.68497 3.85508 7.31075C4.22246 7.91544 4.77442 8.42872 5.42129 8.72227C6.14551 9.04923 6.92774 9.14415 7.70821 8.99122C9.13028 8.70997 10.3168 7.4918 10.5365 6.05567C10.5682 5.85177 10.591 5.64786 10.591 5.44044C10.5928 5.16446 10.3484 4.90079 10.0637 4.91309C9.77891 4.92364 9.53985 5.14161 9.53809 5.43868ZM15.766 6.41427C15.766 6.51973 15.759 6.6252 15.7449 6.73067C15.752 6.68321 15.7572 6.63751 15.7643 6.59005C15.7361 6.79395 15.6816 6.99083 15.6008 7.18067L15.6535 7.05411C15.5973 7.18595 15.5305 7.31075 15.4496 7.43028C15.4285 7.46192 15.4057 7.49356 15.3828 7.5252C15.3705 7.54102 15.3336 7.59024 15.3898 7.51817C15.4479 7.44259 15.4022 7.50059 15.3881 7.51817C15.3424 7.57442 15.2932 7.62716 15.2422 7.67989C15.193 7.72911 15.142 7.77481 15.0893 7.81876C15.084 7.82403 15.0523 7.85743 15.0453 7.85567C15.0453 7.85567 15.1561 7.77306 15.0981 7.81524C15.0664 7.83809 15.0365 7.86095 15.0049 7.88204C14.8836 7.96466 14.7535 8.03321 14.6199 8.09122L14.7465 8.03848C14.5566 8.11759 14.3598 8.17208 14.1559 8.20196C14.2033 8.19493 14.249 8.18966 14.2965 8.18263C14.0855 8.21075 13.8746 8.21075 13.6637 8.18263C13.7111 8.18966 13.7568 8.19493 13.8043 8.20196C13.6004 8.17384 13.4035 8.11934 13.2137 8.03848L13.3402 8.09122C13.2084 8.03497 13.0836 7.96817 12.9641 7.88731C12.9324 7.86622 12.9008 7.84337 12.8691 7.82052C12.8533 7.80821 12.8041 7.7713 12.8762 7.82755C12.9518 7.88555 12.8938 7.83985 12.8762 7.82579C12.8199 7.78009 12.7672 7.73087 12.7145 7.67989C12.6652 7.63067 12.6195 7.5797 12.5756 7.52696C12.5703 7.52169 12.5369 7.49005 12.5387 7.48302C12.5387 7.48302 12.6213 7.59376 12.5791 7.53575C12.5563 7.50411 12.5334 7.47423 12.5123 7.44259C12.4297 7.3213 12.3611 7.19122 12.3031 7.05763L12.3559 7.18419C12.2768 6.99434 12.2223 6.79747 12.1924 6.59356C12.1994 6.64102 12.2047 6.68673 12.2117 6.73419C12.1836 6.52325 12.1836 6.31231 12.2117 6.10138C12.2047 6.14884 12.1994 6.19454 12.1924 6.242C12.2205 6.03809 12.275 5.84122 12.3559 5.65138L12.3031 5.77794C12.3594 5.6461 12.4262 5.5213 12.507 5.40177C12.5281 5.37013 12.551 5.33848 12.5738 5.30684C12.5861 5.29102 12.623 5.2418 12.5668 5.31387C12.5088 5.38946 12.5545 5.33145 12.5686 5.31387C12.6143 5.25762 12.6635 5.20489 12.7145 5.15216C12.7637 5.10294 12.8147 5.05723 12.8674 5.01329C12.8727 5.00802 12.9043 4.97462 12.9113 4.97638C12.9113 4.97638 12.8006 5.05899 12.8586 5.0168C12.8902 4.99395 12.9201 4.9711 12.9518 4.95001C13.073 4.86739 13.2031 4.79884 13.3367 4.74083L13.2102 4.79356C13.4 4.71446 13.5969 4.65997 13.8008 4.63009C13.7533 4.63712 13.7076 4.64239 13.6602 4.64942C13.8711 4.6213 14.082 4.6213 14.293 4.64942C14.2455 4.64239 14.1998 4.63712 14.1523 4.63009C14.3563 4.65821 14.5531 4.7127 14.743 4.79356L14.6164 4.74083C14.7482 4.79708 14.873 4.86387 14.9926 4.94473C15.0242 4.96583 15.0559 4.98868 15.0875 5.01153C15.1033 5.02384 15.1525 5.06075 15.0805 5.0045C15.0049 4.94649 15.0629 4.9922 15.0805 5.00626C15.1367 5.05196 15.1895 5.10118 15.2422 5.15216C15.2914 5.20138 15.3371 5.25235 15.3811 5.30509C15.3863 5.31036 15.4197 5.342 15.418 5.34903C15.418 5.34903 15.3354 5.23829 15.3775 5.2963C15.4004 5.32794 15.4232 5.35782 15.4443 5.38946C15.527 5.51075 15.5955 5.64083 15.6535 5.77442L15.6008 5.64786C15.6799 5.8377 15.7344 6.03458 15.7643 6.23848C15.7572 6.19102 15.752 6.14532 15.7449 6.09786C15.759 6.20333 15.766 6.3088 15.766 6.41427C15.7678 6.69024 16.0068 6.95391 16.2934 6.94161C16.5781 6.9293 16.8225 6.70958 16.8207 6.41427C16.8172 5.84649 16.6484 5.2629 16.3162 4.79884C15.9611 4.30489 15.49 3.94102 14.917 3.73184C13.843 3.33809 12.5404 3.68966 11.8162 4.57384C11.426 5.0502 11.1975 5.60216 11.1465 6.21739C11.099 6.78692 11.2467 7.38458 11.542 7.87501C11.8268 8.34786 12.2592 8.75391 12.7654 8.98067C13.342 9.24083 13.9572 9.31641 14.5777 9.19161C15.6781 8.97013 16.6063 8.01915 16.7768 6.90645C16.8014 6.74298 16.8207 6.5795 16.8225 6.41427C16.8242 6.13829 16.5781 5.87462 16.2951 5.88692C16.0068 5.89923 15.7678 6.11895 15.766 6.41427ZM11.7424 13.667V14.335C11.7424 14.5635 11.7617 14.8025 11.7354 15.0311C11.7424 14.9836 11.7477 14.9379 11.7547 14.8904C11.7459 14.9537 11.7301 15.0135 11.7055 15.0715L11.7582 14.9449C11.7389 14.9871 11.716 15.0275 11.6932 15.0662C11.6527 15.1365 11.7705 14.9818 11.7283 15.024C11.7125 15.0399 11.6984 15.0592 11.6826 15.075C11.6686 15.0891 11.6545 15.1014 11.6404 15.1137C11.5772 15.1734 11.7512 15.0434 11.6738 15.0856C11.6334 15.1084 11.5947 15.1313 11.5525 15.1506L11.6791 15.0979C11.6193 15.1207 11.5613 15.1365 11.498 15.1471C11.5455 15.14 11.5912 15.1348 11.6387 15.1277C11.5332 15.14 11.4242 15.1348 11.317 15.1348H3.49121C3.12735 15.1348 2.76524 15.1383 2.40137 15.1348C2.36621 15.1348 2.3293 15.133 2.29414 15.1277C2.3416 15.1348 2.38731 15.14 2.43477 15.1471C2.37149 15.1383 2.31172 15.1225 2.25371 15.0979L2.38028 15.1506C2.33809 15.1313 2.29766 15.1084 2.25899 15.0856C2.18867 15.0451 2.34336 15.1629 2.30117 15.1207C2.28535 15.1049 2.26602 15.0908 2.2502 15.075C2.23614 15.0609 2.22383 15.0469 2.21153 15.0328C2.15176 14.9695 2.28184 15.1436 2.23965 15.0662C2.2168 15.0258 2.19395 14.9871 2.17461 14.9449L2.22735 15.0715C2.20449 15.0117 2.18867 14.952 2.17813 14.8904C2.18516 14.9379 2.19043 14.9836 2.19746 15.0311C2.1711 14.8307 2.18867 14.6215 2.18867 14.4211V13.6986C2.18867 13.5316 2.19746 13.3664 2.21856 13.2012C2.21153 13.2486 2.20625 13.2943 2.19922 13.3418C2.24141 13.0272 2.32403 12.7213 2.44707 12.4295L2.39434 12.5561C2.48223 12.3504 2.58946 12.1518 2.71426 11.9654C2.74414 11.9215 2.77578 11.8775 2.80742 11.8336C2.88477 11.7299 2.74063 11.9162 2.79512 11.8494C2.81446 11.8248 2.83379 11.802 2.85313 11.7774C2.92168 11.6947 2.99375 11.6156 3.0711 11.54C3.14668 11.4645 3.22578 11.3924 3.3084 11.3221C3.33125 11.3027 3.35586 11.2834 3.38047 11.2641C3.45254 11.2061 3.26621 11.3484 3.35586 11.2834C3.40332 11.25 3.44903 11.2149 3.49649 11.1832C3.68281 11.0584 3.87969 10.9512 4.08711 10.8633L3.96055 10.916C4.25235 10.793 4.55821 10.7104 4.87285 10.6682C4.82539 10.6752 4.77969 10.6805 4.73223 10.6875C4.96426 10.6576 5.19453 10.6576 5.42657 10.6576H8.39199C8.66621 10.6576 8.94043 10.6541 9.21465 10.6893C9.16719 10.6822 9.12149 10.677 9.07403 10.6699C9.3834 10.7139 9.68399 10.7965 9.97227 10.916L9.84571 10.8633C10.0654 10.9565 10.2746 11.0707 10.4697 11.2061C10.5172 11.2377 10.5611 11.2729 10.6068 11.3063C10.4592 11.199 10.6068 11.308 10.6438 11.3379C10.7264 11.4082 10.8072 11.482 10.8828 11.5611C10.9584 11.6385 11.0322 11.7211 11.1008 11.8055C11.1166 11.8248 11.1342 11.8459 11.15 11.867C11.1324 11.8459 11.1166 11.8231 11.099 11.802L11.1307 11.8441C11.1623 11.8863 11.1922 11.9303 11.2203 11.9725C11.3416 12.1553 11.4471 12.3504 11.5332 12.5525L11.4805 12.426C11.6018 12.716 11.6861 13.0201 11.7283 13.333C11.7213 13.2856 11.716 13.2399 11.709 13.1924C11.7318 13.3506 11.7424 13.5088 11.7424 13.667C11.7441 13.943 11.985 14.2066 12.2697 14.1943C12.5545 14.182 12.7988 13.9623 12.7971 13.667C12.7953 13.2117 12.7232 12.7494 12.5668 12.3205C12.4033 11.8723 12.1766 11.475 11.8813 11.1006C11.3188 10.3887 10.475 9.8754 9.58731 9.69259C9.1584 9.6047 8.73477 9.60118 8.30059 9.60118H5.50567C5.07149 9.60118 4.64082 9.617 4.21543 9.72071C2.68965 10.0951 1.44336 11.4082 1.19727 12.9674C1.11641 13.4754 1.13399 13.9852 1.13399 14.4984C1.13399 14.6672 1.12344 14.8395 1.1375 15.0082C1.18321 15.5461 1.55762 16.0488 2.10606 16.1578C2.30117 16.1965 2.48926 16.1912 2.68438 16.1912H11.5297C11.8725 16.1895 12.2205 16.0541 12.4525 15.7992C12.6564 15.576 12.7672 15.3088 12.7936 15.0082C12.7988 14.9484 12.7971 14.8887 12.7971 14.8272V13.667C12.7971 13.391 12.5545 13.1274 12.2697 13.1397C11.985 13.152 11.7424 13.3699 11.7424 13.667Z" fill="#999999"/>
<path d="M17.4113 12.7424V13.3541C17.4113 13.5597 17.4254 13.7724 17.4078 13.9781C17.4148 13.9306 17.4201 13.8849 17.4272 13.8375C17.4219 13.8761 17.4131 13.9131 17.399 13.95L17.4518 13.8234C17.443 13.8445 17.4307 13.8638 17.4219 13.8849C17.3832 13.964 17.5168 13.7812 17.4412 13.8586C17.3691 13.9306 17.5238 13.8146 17.4781 13.8322C17.4535 13.841 17.4324 13.8586 17.4078 13.8691L17.5344 13.8164C17.4975 13.8304 17.4606 13.8392 17.4219 13.8445C17.4693 13.8375 17.515 13.8322 17.5625 13.8252C17.3797 13.841 17.1916 13.8287 17.0088 13.8287H12.2697L12.7971 14.356C12.7971 14.0062 12.8147 13.6511 12.7795 13.3031C12.7074 12.5894 12.4701 11.8933 12.043 11.3115C11.7828 10.9564 11.4893 10.6629 11.1412 10.3957C11.1764 10.6717 11.2115 10.9476 11.2484 11.2236C11.2766 11.199 11.3047 11.1761 11.3328 11.1533C11.4119 11.0865 11.2291 11.2271 11.3135 11.1691C11.3662 11.1322 11.4189 11.0953 11.4734 11.0601C11.5842 10.9916 11.7002 10.9318 11.8197 10.8808L11.6932 10.9336C11.8953 10.8492 12.1063 10.7912 12.3225 10.7595C12.275 10.7666 12.2293 10.7719 12.1818 10.7789C12.3699 10.7543 12.5563 10.7543 12.7461 10.7543H15.1596C15.3617 10.7543 15.5621 10.7508 15.7643 10.7771C15.7168 10.7701 15.6711 10.7648 15.6236 10.7578C15.8434 10.7894 16.0561 10.8474 16.2617 10.9318L16.1352 10.8791C16.2811 10.9424 16.4217 11.0162 16.5535 11.1041C16.5852 11.1252 16.6168 11.148 16.6484 11.1709C16.724 11.2254 16.615 11.1375 16.6063 11.1375C16.615 11.1375 16.6432 11.1674 16.6502 11.1744C16.7117 11.2254 16.7715 11.2799 16.8295 11.3361C16.884 11.3906 16.935 11.4469 16.9842 11.5066C16.9965 11.5207 17.0088 11.5365 17.0211 11.5506C17.0598 11.598 16.9402 11.4416 16.9877 11.5084C17.0106 11.54 17.0334 11.5699 17.0545 11.6015C17.1459 11.7369 17.2232 11.8793 17.2865 12.0287L17.2338 11.9021C17.3199 12.106 17.3779 12.3205 17.4078 12.5402C17.4008 12.4927 17.3955 12.447 17.3885 12.3996C17.4043 12.5138 17.4113 12.6281 17.4113 12.7424C17.4131 13.0183 17.6522 13.282 17.9387 13.2697C18.2234 13.2574 18.4678 13.0377 18.466 12.7424C18.4625 11.8775 18.0863 11.0127 17.4219 10.4502C16.8471 9.9615 16.1387 9.69958 15.3828 9.69958H12.7373C12.5035 9.69958 12.275 9.70837 12.043 9.74353C11.4664 9.82791 10.9391 10.1004 10.5014 10.4801C10.3766 10.589 10.3361 10.7666 10.3555 10.923C10.3801 11.0988 10.4697 11.2025 10.6068 11.308C10.5981 11.301 10.5084 11.2289 10.5629 11.2746C10.577 11.2851 10.5893 11.2957 10.6033 11.308C10.6332 11.3326 10.6631 11.359 10.693 11.3836C10.7492 11.4328 10.802 11.4838 10.8547 11.5347C10.9074 11.5875 10.9584 11.6402 11.0076 11.6965C11.0533 11.7492 11.0973 11.823 11.15 11.867C11.1412 11.8599 11.0744 11.765 11.1148 11.823L11.1465 11.8652C11.1676 11.8933 11.1869 11.9215 11.2063 11.9513C11.2484 12.0129 11.2871 12.0761 11.3258 12.1394C11.4049 12.273 11.4734 12.4101 11.5332 12.5525L11.4805 12.426C11.6018 12.716 11.6861 13.0201 11.7283 13.333C11.7213 13.2855 11.716 13.2398 11.709 13.1924C11.7582 13.5756 11.7406 13.9676 11.7406 14.3543C11.7406 14.639 11.9814 14.8816 12.268 14.8816H17.3393C17.5238 14.8816 17.6979 14.8799 17.8736 14.8043C18.2322 14.6531 18.4537 14.3156 18.4625 13.9271C18.4643 13.841 18.4625 13.7531 18.4625 13.6652V12.7388C18.4625 12.4629 18.2199 12.1992 17.9352 12.2115C17.6539 12.2273 17.4113 12.447 17.4113 12.7424Z" fill="#999999"/>
</g>
<defs>
<clipPath id="clip0_848_1020">
<rect width="18" height="18" fill="white" transform="translate(0.800003)"/>
</clipPath>
</defs>
</svg>
