<svg width="8" height="8" viewBox="0 0 8 8" fill="none" xmlns="http://www.w3.org/2000/svg">
<path d="M6.40052 4.80517C6.16427 4.80673 5.93129 4.86054 5.71834 4.96273C5.50539 5.06493 5.31776 5.21297 5.16892 5.39621L3.12958 4.45773C3.22547 4.1645 3.22547 3.84841 3.12958 3.55519L5.16892 2.6167C5.40949 2.90662 5.74487 3.10235 6.11587 3.16935C6.48687 3.23634 6.86965 3.1703 7.19664 2.98287C7.52363 2.79545 7.77382 2.49869 7.90305 2.14496C8.03228 1.79124 8.03225 1.4033 7.90295 1.0496C7.77366 0.695904 7.52341 0.399188 7.19639 0.211821C6.86936 0.0244542 6.48658 -0.0415191 6.11559 0.0255446C5.7446 0.0926083 5.40925 0.288398 5.16873 0.578359C4.92822 0.86832 4.79799 1.23381 4.80104 1.61033C4.80224 1.70547 4.81161 1.80033 4.82903 1.89387L2.71772 2.8643C2.49262 2.64449 2.20758 2.49591 1.8983 2.43717C1.58903 2.37843 1.26927 2.41214 0.979101 2.53409C0.688928 2.65604 0.441241 2.8608 0.267072 3.12271C0.0929041 3.38462 0 3.69205 0 4.00646C0 4.32087 0.0929041 4.62829 0.267072 4.8902C0.441241 5.15212 0.688928 5.35687 0.979101 5.47882C1.26927 5.60077 1.58903 5.63449 1.8983 5.57575C2.20758 5.51701 2.49262 5.36842 2.71772 5.14861L4.82903 6.11904C4.81161 6.21258 4.80224 6.30744 4.80104 6.40258C4.80104 6.71852 4.89485 7.02737 5.0706 7.29006C5.24635 7.55275 5.49616 7.7575 5.78842 7.8784C6.08069 7.99931 6.40229 8.03094 6.71256 7.96931C7.02283 7.90767 7.30783 7.75553 7.53152 7.53213C7.75521 7.30872 7.90755 7.02409 7.96927 6.71422C8.03098 6.40435 7.99931 6.08317 7.87825 5.79128C7.75719 5.49939 7.55218 5.24991 7.28914 5.07438C7.02611 4.89885 6.71687 4.80517 6.40052 4.80517ZM6.40052 0.811624C6.55869 0.811624 6.71331 0.858467 6.84483 0.946231C6.97635 1.03399 7.07885 1.15873 7.13938 1.30468C7.19991 1.45062 7.21575 1.61122 7.18489 1.76615C7.15403 1.92109 7.07787 2.0634 6.96602 2.1751C6.85418 2.28681 6.71168 2.36288 6.55654 2.39369C6.40141 2.42451 6.2406 2.40869 6.09447 2.34824C5.94834 2.28779 5.82344 2.18542 5.73556 2.05407C5.64768 1.92272 5.60078 1.7683 5.60078 1.61033C5.60078 1.3985 5.68504 1.19535 5.83502 1.04556C5.985 0.895773 6.18842 0.811624 6.40052 0.811624ZM1.60208 4.80517C1.4439 4.80517 1.28928 4.75832 1.15777 4.67056C1.02625 4.5828 0.923745 4.45805 0.863215 4.31211C0.802684 4.16616 0.786847 4.00557 0.817705 3.85064C0.848563 3.6957 0.924731 3.55339 1.03658 3.44169C1.14842 3.32998 1.29092 3.25391 1.44606 3.2231C1.60119 3.19228 1.76199 3.20809 1.90813 3.26855C2.05426 3.329 2.17916 3.43137 2.26704 3.56272C2.35491 3.69407 2.40182 3.84849 2.40182 4.00646C2.40182 4.21829 2.31756 4.42144 2.16758 4.57123C2.0176 4.72102 1.81418 4.80517 1.60208 4.80517ZM6.40052 7.20129C6.24235 7.20129 6.08772 7.15445 5.95621 7.06668C5.82469 6.97892 5.72219 6.85418 5.66166 6.70824C5.60113 6.56229 5.58529 6.4017 5.61615 6.24676C5.647 6.09183 5.72317 5.94951 5.83502 5.83781C5.94686 5.72611 6.08936 5.65004 6.2445 5.61922C6.39963 5.5884 6.56043 5.60422 6.70657 5.66467C6.8527 5.72512 6.9776 5.8275 7.06548 5.95884C7.15336 6.09019 7.20026 6.24461 7.20026 6.40258C7.20026 6.61441 7.116 6.81757 6.96602 6.96735C6.81604 7.11714 6.61262 7.20129 6.40052 7.20129Z" fill="black"/>
</svg>
