<svg width="16" height="16" viewBox="0 0 16 16" fill="none" xmlns="http://www.w3.org/2000/svg">
<path d="M8.68084 11.4635C8.67324 11.4458 8.66063 11.4307 8.64455 11.4201C8.62848 11.4096 8.60965 11.4039 8.59041 11.4039H6.89192C6.87264 11.4039 6.85378 11.4095 6.83767 11.4201C6.82155 11.4307 6.80889 11.4458 6.80125 11.4635L6.52018 12.1142C6.51362 12.1292 6.51094 12.1456 6.51237 12.1619C6.5138 12.1781 6.5193 12.1938 6.52836 12.2074C6.53699 12.221 6.56267 12.2519 6.61084 12.2519H8.87171C8.88803 12.252 8.90412 12.248 8.91849 12.2403C8.93286 12.2325 8.94506 12.2213 8.95397 12.2076C8.96307 12.194 8.96859 12.1783 8.97002 12.162C8.97145 12.1456 8.96874 12.1292 8.96215 12.1142L8.68084 11.4635Z" fill="black"/>
<path d="M11.4452 10.3993C11.5179 10.3993 11.5793 10.3402 11.5793 10.2675V10.0903C11.5793 10.0312 11.5384 9.97895 11.4793 9.96305L10.7976 9.7949L10.4386 10.1039L9.81831 8.49973C9.77639 8.39676 9.70693 8.30731 9.61756 8.24118C9.52818 8.17505 9.42233 8.13479 9.3116 8.12481C8.25584 8.04302 7.19533 8.04302 6.13957 8.12481C5.91689 8.14299 5.71693 8.29069 5.63286 8.49973L5.01368 10.1044L4.65239 9.79581L3.97118 9.96282C3.94303 9.97062 3.91819 9.98736 3.9004 10.0105C3.8826 10.0337 3.87283 10.062 3.87256 10.0912V10.2668C3.87256 10.3402 3.93255 10.4 4.00594 10.4H4.61763L4.75055 10.6618L4.60808 10.8697C4.5331 10.9969 4.49447 11.1423 4.49447 11.29V12.8551C4.49447 12.9544 4.57491 13.0351 4.67443 13.0351H10.7767C10.8003 13.0352 10.8237 13.0306 10.8456 13.0216C10.8674 13.0126 10.8872 12.9994 10.904 12.9827C10.9207 12.966 10.9339 12.9462 10.943 12.9244C10.952 12.9026 10.9567 12.8792 10.9567 12.8556V11.29C10.9567 11.1423 10.9181 10.9969 10.8385 10.8629L10.6999 10.6629L10.834 10.3993H11.4452ZM5.63059 9.12232C6.38042 9.01507 8.90419 8.99122 9.82058 9.12232L10.325 10.4448H9.93874C9.88193 9.96078 9.4752 9.58359 8.97758 9.58359C8.47997 9.58359 8.07096 9.96078 8.01416 10.4448H5.12615L5.63059 9.12232ZM5.3102 12.0467H4.7217V11.7127H5.53515L5.3102 12.0467ZM9.14346 12.333C9.08438 12.4239 8.98213 12.4784 8.87079 12.4784H6.60992C6.50085 12.4784 6.3986 12.4239 6.33725 12.333C6.30767 12.2876 6.28989 12.2356 6.28552 12.1816C6.28116 12.1277 6.29035 12.0735 6.31226 12.024L6.59174 11.3741C6.644 11.2537 6.76216 11.1764 6.89168 11.1764H8.59131C8.72082 11.1764 8.83898 11.2537 8.88897 11.3741L9.17072 12.024C9.2139 12.1262 9.20481 12.2398 9.14346 12.333ZM8.23911 10.4448C8.26637 10.2684 8.35578 10.1076 8.49119 9.99131C8.62661 9.87506 8.79911 9.81105 8.97758 9.81081C9.35023 9.81081 9.65925 10.0857 9.71606 10.4448H8.23911ZM10.7295 11.7127V12.0467L10.1432 12.049L9.91602 11.7127H10.7295ZM4.83758 14.5627H1.59329C1.56316 14.5627 1.53426 14.5747 1.51295 14.596C1.49165 14.6173 1.47968 14.6462 1.47968 14.6763C1.47968 14.7065 1.49165 14.7354 1.51295 14.7567C1.53426 14.778 1.56316 14.79 1.59329 14.79H4.83758C4.86771 14.79 4.89661 14.778 4.91791 14.7567C4.93922 14.7354 4.95119 14.7065 4.95119 14.6763C4.95119 14.6462 4.93922 14.6173 4.91791 14.596C4.89661 14.5747 4.86771 14.5627 4.83758 14.5627ZM10.5488 14.5627H5.80941C5.77928 14.5627 5.75038 14.5747 5.72908 14.596C5.70777 14.6173 5.6958 14.6462 5.6958 14.6763C5.6958 14.7065 5.70777 14.7354 5.72908 14.7567C5.75038 14.778 5.77928 14.79 5.80941 14.79H10.5488C10.579 14.79 10.6079 14.778 10.6292 14.7567C10.6505 14.7354 10.6624 14.7065 10.6624 14.6763C10.6624 14.6462 10.6505 14.6173 10.6292 14.596C10.6079 14.5747 10.579 14.5627 10.5488 14.5627ZM13.8579 14.5627H11.5445C11.5144 14.5627 11.4855 14.5747 11.4642 14.596C11.4429 14.6173 11.4309 14.6462 11.4309 14.6763C11.4309 14.7065 11.4429 14.7354 11.4642 14.7567C11.4855 14.778 11.5144 14.79 11.5445 14.79H13.8579C13.888 14.79 13.9169 14.778 13.9382 14.7567C13.9595 14.7354 13.9715 14.7065 13.9715 14.6763C13.9715 14.6462 13.9595 14.6173 13.9382 14.596C13.9169 14.5747 13.888 14.5627 13.8579 14.5627ZM7.12912 5.48789H8.32046V4.87598H7.12912V5.48789ZM8.54836 5.48789H9.73969V4.87598H8.54836V5.48789ZM9.26411 6.32702H10.4616V5.71511H9.26411V6.32702ZM7.83897 6.32702H9.03666V5.71511H7.8392L7.83897 6.32702ZM4.29065 5.48789H5.48198V4.87598H4.29065V5.48789ZM4.98891 6.32702H6.18683V5.71511H4.98891V6.32702ZM5.70989 5.48789H6.90122V4.87598H5.70989V5.48789ZM6.41405 6.32702H7.61152V5.71511H6.41405V6.32702ZM1.48672 10.7497H1.95184V11.3614H1.48672V10.7497ZM1.48672 10.5225H2.64419V9.91056H1.48672V10.5225ZM11.1592 4.87598H9.9676V5.48789H11.1592V4.87598ZM1.48672 9.07143H1.95184V9.68334H1.48672V9.07143ZM1.48672 12.4277H1.95184V13.0397H1.48672V12.4277ZM1.48672 12.2005H2.64419V11.5884H1.48672V12.2005ZM12.1139 11.5886H12.5788V12.2005H12.1139V11.5886ZM13.2714 10.7497H12.1139V11.3612H13.2714V10.7497ZM12.1139 9.91056H12.5788V10.5225H12.1139V9.91056ZM1.48672 8.8442H2.64419V8.23229H1.48672V8.8442Z" fill="black"/>
<path d="M7.72491 3.32603C7.97489 3.32603 8.17753 3.12338 8.17753 2.8734C8.17753 2.62343 7.97489 2.42078 7.72491 2.42078C7.47493 2.42078 7.27228 2.62343 7.27228 2.8734C7.27228 3.12338 7.47493 3.32603 7.72491 3.32603Z" fill="black"/>
<path d="M13.2714 9.07148H12.1139V9.68339H13.2714V9.07148ZM3.47491 3.96714H11.976L7.72558 1.45337L3.47491 3.96714ZM8.40475 2.87351C8.40451 3.05373 8.3328 3.22649 8.20535 3.3539C8.07789 3.4813 7.90511 3.55296 7.7249 3.55314C7.34998 3.55314 7.04504 3.2482 7.04504 2.87351C7.04504 2.49882 7.34998 2.19366 7.7249 2.19366C7.90515 2.19384 8.07797 2.26553 8.20543 2.39299C8.33288 2.52044 8.40457 2.69326 8.40475 2.87351Z" fill="black"/>
<path d="M7.72558 0.661255L0.983186 4.64902H14.4677L7.72558 0.661255ZM12.3914 4.19457H3.05978C3.03489 4.19457 3.01069 4.18639 2.9909 4.17129C2.97111 4.15619 2.95683 4.13501 2.95024 4.11101C2.94366 4.087 2.94515 4.0615 2.95447 4.03842C2.96379 4.01534 2.98043 3.99596 3.00184 3.98326L7.66764 1.2234C7.68517 1.21301 7.70519 1.20752 7.72558 1.20752C7.74597 1.20752 7.76598 1.21301 7.78352 1.2234L12.4491 3.9828C12.4705 3.99549 12.4871 4.01485 12.4964 4.03791C12.5058 4.06097 12.5073 4.08645 12.5007 4.11044C12.4942 4.13443 12.4799 4.15561 12.4602 4.17073C12.4404 4.18585 12.4163 4.19406 12.3914 4.19412V4.19457ZM3.56376 6.32706H4.76168V5.71515H3.56399V6.32706H3.56376ZM12.5791 4.87602H11.3871V5.48793H12.5791V4.87602ZM13.2714 5.71515H12.1139V6.32706H13.2714V5.71515ZM4.06274 4.87602H2.87141V5.48793H4.06274V4.87602ZM13.2714 7.39342H12.1139V8.00511H13.2714V7.39342ZM12.1139 6.55429H12.5788V7.1662H12.1139V6.55429ZM12.1139 8.23233H12.5788V8.84424H12.1139V8.23233ZM13.2714 12.4278H12.1139V13.0397H13.2714V12.4278ZM13.9635 11.5884H12.8063V12.2003H13.9635V11.5884ZM13.4986 10.7497H13.9638V11.3614H13.4986V10.7497ZM13.4986 12.4278H13.9638V13.0397H13.4986V12.4278ZM11.8867 5.71515H10.689V6.32706H11.8867V5.71515ZM13.9635 9.9106H12.8063V10.5225H13.9635V9.9106ZM14.9967 13.9915C14.9967 14.0551 14.9467 14.1051 14.8831 14.1051H0.568049C0.504426 14.1051 0.454437 14.0551 0.454437 13.9915C0.454437 13.9302 0.504426 13.8779 0.568049 13.8779H1.48603V13.2667H2.64487V13.8779H2.87209V13.2667H3.33563V13.8779H4.73532C4.72623 13.8529 4.72169 13.8257 4.72169 13.7961V13.2621H6.16001V13.7961C6.16001 13.8257 6.15547 13.8529 6.14638 13.8779H9.30478C9.29569 13.8529 9.29115 13.8257 9.29115 13.7961V13.2621H10.7295V13.7961C10.7295 13.8257 10.7249 13.8529 10.7158 13.8779H12.1133V13.2667H12.5791V13.8779H12.8063V13.2667H13.9629V13.8779H14.8831C14.9467 13.8779 14.9967 13.9302 14.9967 13.9915ZM13.4986 9.07146H13.9638V9.68338H13.4986V9.07146ZM13.9635 6.55429H12.8063V7.1662H13.9635V6.55429ZM13.4986 5.71515H13.9638V6.32706H13.4986V5.71515ZM13.9635 4.87624H12.8063V5.48793H13.9635V4.87624ZM13.9635 8.23233H12.8063V8.84424H13.9635V8.23233ZM11.8867 6.55429H3.56353V7.14461H11.8867V6.55429ZM13.4986 7.39342H13.9638V8.00511H13.4986V7.39342ZM2.87141 8.23233H3.33563V8.84424H2.87141V8.23233ZM3.33563 12.4278H2.17906V13.0397H3.33563V12.4278ZM1.48671 5.71515H1.95184V6.32706H1.48671V5.71515ZM3.33631 5.71515H2.17906V6.32706H3.33631V5.71515ZM1.48671 7.1662H2.64419V6.55429H1.48671V7.1662ZM2.87141 11.5886H3.33563V12.2006H2.87141V11.5886ZM2.64351 4.87624H1.48694V5.48793H2.64351V4.87624ZM3.33563 7.39342H2.17906V8.00511H3.33563V7.39342ZM1.48671 7.39342H1.95184V8.00511H1.48671V7.39342ZM2.87141 6.55429H3.33563V7.1662H2.87141V6.55429ZM3.33563 9.07146H2.17906V9.68338H3.33563V9.07146ZM3.33563 10.7497H2.17906V11.3612H3.33563V10.7497ZM2.87141 9.9106H3.33563V10.5225H2.87141V9.9106Z" fill="black"/>
</svg>
