<svg width="22" height="22" viewBox="0 0 22 22" fill="none" xmlns="http://www.w3.org/2000/svg">
<path d="M1.83334 11C1.83334 12.9449 2.79911 14.8101 4.5182 16.1854C6.23728 17.5607 8.56886 18.3333 11 18.3333C13.4312 18.3333 15.7627 17.5607 17.4818 16.1854C19.2009 14.8101 20.1667 12.9449 20.1667 11C20.1667 9.05504 19.2009 7.18978 17.4818 5.81451C15.7627 4.43924 13.4312 3.66663 11 3.66663C8.56886 3.66663 6.23728 4.43924 4.5182 5.81451C2.79911 7.18978 1.83334 9.05504 1.83334 11Z" stroke="#323232" stroke-width="2" stroke-linecap="round" stroke-linejoin="round"/>
<path d="M8.25 11C8.25 15.0501 9.48108 18.3333 11 18.3333C12.5189 18.3333 13.75 15.0501 13.75 11C13.75 6.94986 12.5189 3.66663 11 3.66663C9.48108 3.66663 8.25 6.94986 8.25 11Z" stroke="#323232" stroke-width="2" stroke-linecap="round" stroke-linejoin="round"/>
<path d="M5.88043 4.91418C5.06643 5.44114 4.58334 6.09799 4.58334 6.80933C4.58334 8.54523 7.45618 9.95218 11 9.95218C14.5438 9.95218 17.4167 8.54523 17.4167 6.80933C17.4167 6.09904 16.9354 5.44323 16.1242 4.91733" stroke="#323232" stroke-width="2" stroke-linecap="round" stroke-linejoin="round"/>
</svg>
